<?xml version="1.0" encoding="utf-8"?>
<!-- Generator: Adobe Illustrator 24.2.1, SVG Export Plug-In . SVG Version: 6.00 Build 0)  -->
<svg version="1.1" id="Layer_1" xmlns="http://www.w3.org/2000/svg" xmlns:xlink="http://www.w3.org/1999/xlink" x="0px" y="0px"
	 viewBox="0 0 1366 768" style="enable-background:new 0 0 1366 768;" xml:space="preserve">
<style type="text/css">
	.st0{fill:#FFFFFF;stroke:#000000;stroke-miterlimit:10;}
</style>
<path class="st0" d="M1194.64,360.5c-6.74,3.56-15.05,7.05-24.81,9.45c-2.71,0.67-12.16,2.88-24.81,3.15
	c-4.98,0.11-11.25,0.21-19.3-1.18c-3.05-0.53-13.02-2.42-24.81-8.27c-5.97-2.96-15.95-8.03-25.6-18.51
	c-3.67-3.99-13.61-15.62-18.12-33.08c-2.42-9.39-2.4-17.09-2.36-19.3c0.1-5.71,0.87-9.97,1.58-13.78c1.68-9.05,2.78-14.96,6.7-21.66
	c4.59-7.84,10.53-12.47,13.78-14.97c1.1-0.84,5.01-3.77,10.24-6.3c23.08-11.17,47.96-3.06,50.02-2.36
	c4.42,1.51,10.34,3.61,16.54,8.66c8.32,6.79,12.29,14.93,14.18,18.9c2.88,6.05,6.1,15.57,6.7,17.33c2.02,6,2.23,7.51,2.76,7.48
	c2.11-0.11,5.69-24.77-0.39-50.41c-4.25-17.91-11.7-29.85-13.78-33.08c-8.88-13.75-18.72-21.56-20.87-23.24
	c-9.61-7.47-18.28-10.97-24.42-13.39c-20.84-8.23-39.66-8.96-50.02-8.66c-22.49,0.64-38.74,7.05-50.8,11.81
	c-5.73,2.26-20.46,8.41-37.41,20.09c-17.14,11.8-27.94,23.3-41.11,37.5c-6.79,7.32-14.23,16.52-29.1,34.92
	c-14.53,17.97-23.56,29.14-35.64,44.92c-6.22,8.12-11.54,14.63-22.19,27.64c-7.92,9.68-10.76,12.96-15.27,16.72
	c-9.73,8.11-19.13,11.55-26.67,14.46c-8.04,3.11-26.25,9.92-50.17,7.68c-7.93-0.74-22.75-2.29-38.87-11.75
	c-5.48-3.22-21.73-13.04-32.04-33.33c-7.08-13.91-8.09-26.32-8.5-32.06c-0.54-7.58-1.24-17.37,3.09-28.97
	c1.8-4.81,6.16-16.48,17.38-23.56c4.01-2.53,8.01-3.92,11.2-5.02c1.47-0.51,7.32-2.48,18.54-3.86c8.24-1.02,12.36-1.53,17-1.16
	c14.16,1.12,24.11,7.77,27.43,10.04c2.7,1.85,6.78,4.69,10.79,9.62c0.78,0.97,3.13,3.94,8.46,14.29
	c5.45,10.58,5.81,12.93,6.71,12.83c3.07-0.34,7.99-28.64-1.49-56.57c-2.51-7.39-12.88-34.96-41.68-52.1
	c-18.7-11.13-35.93-12.35-50.61-13.4c-41.5-2.95-72.93,12.28-83.36,17.86c-15.06,8.06-25.92,18.27-47.64,38.7
	c-6.59,6.2-29.72,28.29-56.93,62.32c-13.84,17.31-18.35,24.72-38.31,48.95c-22.02,26.73-28.17,31.84-36.18,36.18
	c-21.23,11.49-43.24,10.91-53.2,10.64c-16.2-0.43-27.7-4.06-31.35-5.28c-6.18-2.07-14.68-5-23.95-11.98
	c-2.59-1.94-11.47-8.89-19.02-21.14c-7.12-11.55-9.39-21.86-10.57-27.48c-2.15-10.23-4.48-21.29-0.35-34.52
	c0.76-2.44,4.05-12.36,13.03-21.84c1.14-1.2,6.59-6.85,15.66-11.74c4.62-2.49,19.55-10.28,39.15-7.83
	c4.75,0.59,12.53,1.57,20.88,6.52c16.02,9.51,23.32,27.27,25.85,33.44c3.24,7.88,4.44,14.22,6.08,14.04
	c2.43-0.28,2.74-13.58,2.81-16.38c0.28-11.82,0.52-33.86-12.63-58.01c-7.36-13.51-15.77-21.92-18.25-24.33
	c-3.31-3.21-15.6-14.66-35.56-21.99c-19-6.97-34.95-6.53-46.79-6.08c-7.96,0.3-23.8,1.55-42.58,7.95
	c-25.78,8.8-42.33,22.3-59.42,36.49c-18.68,15.52-30.29,28.91-45.38,46.32c-15.39,17.74-35.23,42.83-48.19,60.82
	c-2.62,3.63-10.16,14.2-21.52,27.6c-4.61,5.44-8.55,9.81-10.29,11.7c-14.5,15.7-33.78,29.28-49.13,38.83v93.02h1154.89V360.5z"/>
</svg>
